<svg viewBox="0 0 16 16" xmlns="http://www.w3.org/2000/svg" class="w-20p h-20p text-primary" data-v-02cbc744=""><g fill="currentColor" fill-rule="evenodd" class="origin-center transition-transform duration-300" style="transform: rotate(0deg);"><path d="M10.56 6.16a.8.8 0 0 1 1.12 1.12l-3.2 3.2a.8.8 0 0 1-1.12 0l-3.2-3.2a.8.8 0 0 1 1.12-1.12l2.64 2.63 2.64-2.64v.01z"></path> <path d="M8 16A8 8 0 1 1 8 0a8 8 0 0 1 0 16zm0-1.6A6.4 6.4 0 1 0 8 1.6a6.4 6.4 0 0 0 0 12.8z" fill-rule="nonzero"></path></g></svg>