<svg viewBox="0 0 147 39" xmlns="http://www.w3.org/2000/svg" class="h-full eg-companylogo w-full mr-3" style="width: 145px;"><g fill="currentColor" fill-rule="nonzero"><path d="M59.32 14.95v2.12h-8.66V4.6h8.5v2.13H53.1v3h5.25v1.96h-5.25v3.25h6.23zM62.45 4.6l3.37 9.43 3.34-9.43h2.54l-4.86 12.47H64.8L59.9 4.6h2.55zm19.2 10.35v2.12h-8.67V4.6h8.5v2.13h-6.07v3h5.25v1.96H75.4v3.25h6.23zm4.26-5.87v7.99h-2.42V4.6h1.88l6.5 8.19V4.62h2.42v12.45h-1.97L85.9 9.08zm20.25-2.35h-3.99v10.34h-2.4V6.73h-4V4.6h10.39v2.13zm-55.5 27.9V22.16h2.43v10.35h6.35v2.12h-8.77zm14.74.09c-.86.01-1.71-.17-2.49-.54A6.1 6.1 0 0 1 61 32.76a6.6 6.6 0 0 1-1.68-4.37 6.6 6.6 0 0 1 1.75-4.4 6.12 6.12 0 0 1 1.94-1.4 5.76 5.76 0 0 1 4.9.04c.73.35 1.38.84 1.91 1.45a6.67 6.67 0 0 1 1.67 4.35 6.3 6.3 0 0 1-1.72 4.38 6.08 6.08 0 0 1-4.37 1.9zm-3.62-6.33c0 .53.08 1.06.24 1.56.16.49.4.94.72 1.34.3.39.7.7 1.14.93.98.47 2.12.47 3.09 0 .44-.24.83-.57 1.14-.96a4.99 4.99 0 0 0 .68-4.43 4.3 4.3 0 0 0-.72-1.33c-.3-.39-.7-.7-1.14-.93a3.56 3.56 0 0 0-3.08.02c-.44.23-.83.56-1.14.95-.31.4-.54.85-.7 1.34-.15.49-.23 1-.23 1.51zm10.76-.09c0-.77.15-1.53.42-2.25a6.05 6.05 0 0 1 5.73-3.96 5.67 5.67 0 0 1 2.98.75c.8.47 1.45 1.15 1.87 1.97l-1.86 1.28a3.18 3.18 0 0 0-1.36-1.46 4 4 0 0 0-1.7-.4 3.27 3.27 0 0 0-2.71 1.32c-.3.4-.53.86-.68 1.34a5.05 5.05 0 0 0 .04 3.07c.16.49.41.95.74 1.34.32.39.72.7 1.16.93.46.24.97.36 1.49.36a3.9 3.9 0 0 0 1.74-.44c.29-.16.54-.36.77-.6.24-.24.43-.54.56-.86l1.98 1.14c-.2.47-.48.89-.85 1.24a6.37 6.37 0 0 1-4.28 1.65 5.31 5.31 0 0 1-2.44-.56 6.36 6.36 0 0 1-1.9-1.46 6.8 6.8 0 0 1-1.7-4.4zm16.13-6.14h2.14l4.74 12.47h-2.5l-1.15-3.1h-4.36l-1.14 3.1h-2.5l4.77-12.47zm2.79 7.65l-1.72-4.9-1.8 4.9h3.52zm13.5-5.52h-3.98v10.34h-2.41V24.29h-4v-2.13h10.4v2.13zm1.5 10.34V22.16h2.42v12.47h-2.42zm10.29.1c-.86 0-1.71-.18-2.49-.54a6.1 6.1 0 0 1-1.91-1.42 6.6 6.6 0 0 1-1.22-6.77 6.6 6.6 0 0 1 1.29-2 6.12 6.12 0 0 1 1.94-1.4 5.76 5.76 0 0 1 4.9.03c.73.35 1.38.84 1.91 1.45a6.67 6.67 0 0 1 1.67 4.35 6.3 6.3 0 0 1-1.72 4.38 6.08 6.08 0 0 1-4.38 1.9v.01zm-3.62-6.34c0 .53.08 1.06.24 1.56.16.49.4.94.71 1.34.32.39.7.7 1.15.93.97.47 2.11.47 3.09 0 .44-.24.83-.57 1.14-.96a4.99 4.99 0 0 0 .68-4.43 4.3 4.3 0 0 0-.72-1.33c-.31-.39-.7-.7-1.14-.93a3.56 3.56 0 0 0-3.08.02c-.45.23-.84.56-1.14.95-.31.4-.55.85-.7 1.34-.15.49-.23 1-.23 1.51zm13.94-1.75v7.99h-2.42V22.16h1.88l6.5 8.19v-8.17h2.42v12.45h-1.97l-6.4-8zm18.35-1.22a5.44 5.44 0 0 0-1.24-.75 6.8 6.8 0 0 0-1-.33c-.37-.1-.74-.15-1.11-.14-.53-.04-1.05.09-1.5.36-.32.25-.5.63-.49 1.04 0 .23.06.45.19.64.14.19.32.34.53.45.29.15.58.26.89.35.36.1.77.22 1.24.33.6.17 1.16.34 1.66.53.45.16.88.4 1.26.7a2.9 2.9 0 0 1 1.08 2.46 3.6 3.6 0 0 1-.38 1.71c-.24.46-.59.86-1.02 1.15-.44.3-.94.52-1.47.64a7.4 7.4 0 0 1-1.75.2 9.38 9.38 0 0 1-5.23-1.6l1.07-2.1c.18.16.37.3.57.42a8.72 8.72 0 0 0 2.22.94c.46.11.93.17 1.4.17 1.34 0 2-.42 2-1.28.01-.25-.07-.49-.22-.68-.18-.21-.4-.38-.66-.5a6.22 6.22 0 0 0-1.01-.38l-1.34-.39c-.53-.14-1.05-.32-1.55-.53-.4-.17-.78-.4-1.1-.69a2.57 2.57 0 0 1-.66-.91 3.88 3.88 0 0 1 .13-2.92c.22-.49.56-.9.97-1.23.44-.34.93-.6 1.45-.75a6.88 6.88 0 0 1 4.2.16c.68.24 1.33.57 1.93.97l-1.06 1.96zM18.99 12a6 6 0 0 0-5.47 8.43 37.75 37.75 0 0 0 5.22 7.72.33.33 0 0 0 .5 0 37.77 37.77 0 0 0 5.2-7.72A6 6 0 0 0 18.99 12zm0 9.1a3.11 3.11 0 1 1 0-6.22 3.11 3.11 0 0 1 0 6.22z"></path> <path d="M18.76 1a18.76 18.76 0 1 0 0 37.53 18.76 18.76 0 0 0 0-37.53zm.1 35.25a16.59 16.59 0 1 1 0-33.18 16.59 16.59 0 0 1 0 33.18z"></path></g></svg>