<svg data-v-59eda678="" viewBox="0 0 48 48" xmlns="http://www.w3.org/2000/svg" class="w-20p h-20p text-primary"><g transform="translate(1 4)" fill-rule="nonzero"><path d="M0 3.95h45.61v4.57H0V3.95zm0 13.69h45.61v4.56H0v-4.56zm0 13.68h45.61v4.56H0v-4.56z" fill="rgb(220, 220, 220)"></path> <path d="M10.26 11.94a5.7 5.7 0 1 1 0-11.4 5.7 5.7 0 0 1 0 11.4zm25.09 13.68a5.7 5.7 0 1 1 0-11.4 5.7 5.7 0 0 1 0 11.4zM10.26 39.3a5.7 5.7 0 1 1 0-11.4 5.7 5.7 0 0 1 0 11.4z" fill="currentColor"></path></g></svg>