<svg viewBox="0 0 17 16" xmlns="http://www.w3.org/2000/svg" class="w-18p h-18p"><g fill="none" fill-rule="evenodd"><g fill="currentColor" fill-rule="nonzero"><g><path d="M15.63 1.49a4.52 4.52 0 0 0-6.66 0l-.46.5-.48-.5A4.54 4.54 0 0 0 4.7 0C3.45 0 2.26.52 1.38 1.47A5.17 5.17 0 0 0 0 5.04c0 1.35.5 2.6 1.38 3.56l6.77 7.25c.1.1.22.15.34.15.13 0 .25-.05.35-.15l6.78-7.23A5.2 5.2 0 0 0 17 5.05c0-1.35-.48-2.61-1.37-3.56zm-.72 6.5L8.5 15 2.1 7.97C1.4 7.2 1 6.17 1 5.08c0-1.1.38-2.12 1.09-2.89C2.79 1.43 3.72 1 4.7 1c1 0 1.94.43 2.64 1.2l.81.89c.2.2.5.2.69 0l.8-.88c.7-.78 1.64-1.2 2.63-1.2 1 0 1.93.42 2.63 1.2C15.61 2.97 16 4 16 5.08c0 1.1-.38 2.12-1.09 2.9z"></path> <!----></g></g></g></svg>