<svg data-v-0fc3988a="" version="1.1" xmlns="http://www.w3.org/2000/svg" xmlns:xlink="http://www.w3.org/1999/xlink" viewBox="0 0 84.1 91.7" xml:space="preserve" class="flex-shrink-0 w-70p h-70p mb-6 relative z-1 text-white"><g transform="translate(0 7.562)" fill="currentColor"><path d="M14,25.5v44.9l17.7-7.6l21,10.5l17.3-7.4V21l4.6-2c0.9-0.4,1.9,0,2.3,0.9c0.1,0.2,0.1,0.5,0.1,0.7v49.9
    L52.6,81.1l-21-10.5L9.4,80c-0.9,0.4-1.9,0-2.3-0.9C7.1,78.9,7,78.7,7,78.4V28.5L14,25.5z"></path> <path d="M42,49.9L42,49.9c-3.4-3.8-6.5-7.9-9.4-12.1c-2.5-3.6-4.6-7.4-6.4-11.3c-1.7-3.5-2.7-7.4-2.9-11.4
    C23.3,4.8,31.6-3.6,41.9-3.7s18.8,8.3,18.8,18.6c0,0.1,0,0.2,0,0.2c-0.2,3.9-1.2,7.8-2.9,11.4c-1.8,3.9-4,7.7-6.4,11.3
    C48.5,42,45.4,46.1,42,49.9L42,49.9z M42.5,4.5c-5.5,0-10,4.5-10,10s4.5,10,10,10s10-4.5,10-10C52.5,9,48.1,4.6,42.5,4.5z"></path></g></svg>